HIERARCHY
ROOT Pelvis
{
	OFFSET 0.000000 0.000000 0.000000
	CHANNELS 6 Xposition Yposition Zposition Xrotation Yrotation Zrotation
	JOINT LeftUpLeg_virtual
	{
		OFFSET 0.000000 0.000000 0.000000
		CHANNELS 3 Xrotation Yrotation Zrotation
		JOINT LeftUpLeg
		{
			OFFSET 18.735201 -5.666702 -4.541200
			CHANNELS 3 Xrotation Yrotation Zrotation
			JOINT LeftLeg
			{
				OFFSET -0.021200 -31.938179 0.493100
				CHANNELS 3 Xrotation Yrotation Zrotation
				JOINT LeftFoot
				{
					OFFSET 0.021200 -31.938179 -4.336299
					CHANNELS 3 Xrotation Yrotation Zrotation
					JOINT LeftToeBase
					{
						OFFSET 0.943001 -26.722000 15.023500
						CHANNELS 3 Xrotation Yrotation Zrotation
						End Site
						{
							OFFSET 0 0 0
						}
					}
				}
			}
		}
	}
	JOINT RightUpLeg_virtual
	{
		OFFSET 0.000000 0.000000 0.000000
		CHANNELS 3 Xrotation Yrotation Zrotation
		JOINT RightUpLeg
		{
			OFFSET -18.735201 -5.666702 -4.541200
			CHANNELS 3 Xrotation Yrotation Zrotation
			JOINT RightLeg
			{
				OFFSET 0.018946 -31.938133 0.493100
				CHANNELS 3 Xrotation Yrotation Zrotation
				JOINT RightFoot
				{
					OFFSET -0.018946 -31.938126 -4.336299
					CHANNELS 3 Xrotation Yrotation Zrotation
					JOINT RightToeBase
					{
						OFFSET -0.943001 -26.722004 15.023500
						CHANNELS 3 Xrotation Yrotation Zrotation
						End Site
						{
							OFFSET 0 0 0
						}
					}
				}
			}
		}
	}
	JOINT Hips_virtual
	{
		OFFSET 0.000000 0.000000 0.000000
		CHANNELS 3 Xrotation Yrotation Zrotation
		JOINT Hips
		{
			OFFSET -0.000000 -0.000000 -0.000000
			CHANNELS 3 Xrotation Yrotation Zrotation
			JOINT Spine
			{
				OFFSET 0.000000 10.199997 -0.299500
				CHANNELS 3 Xrotation Yrotation Zrotation
				JOINT Spine1
				{
					OFFSET 0.000000 11.900002 -1.516600
					CHANNELS 3 Xrotation Yrotation Zrotation
					JOINT Spine2
					{
						OFFSET 0.000000 13.600006 -2.842500
						CHANNELS 3 Xrotation Yrotation Zrotation
						JOINT Neck_virtual
						{
							OFFSET 0.000000 0.000000 0.000000
							CHANNELS 3 Xrotation Yrotation Zrotation
							JOINT Neck
							{
								OFFSET 0.000000 9.624100 -2.890100
								CHANNELS 3 Xrotation Yrotation Zrotation
								JOINT Head
								{
									OFFSET 0.000000 14.068802 -1.351900
									CHANNELS 3 Xrotation Yrotation Zrotation
									End Site
									{
										OFFSET 0 0 0
									}
								}
							}
						}
						JOINT LeftShoulder_virtual
						{
							OFFSET 0.000000 0.000000 0.000000
							CHANNELS 3 Xrotation Yrotation Zrotation
							JOINT LeftShoulder
							{
								OFFSET 15.263000 10.923401 -0.547700
								CHANNELS 3 Xrotation Yrotation Zrotation
								JOINT LeftArm
								{
									OFFSET 25.438599 -2.830597 -13.032500
									CHANNELS 3 Xrotation Yrotation Zrotation
									JOINT LeftForeArm
									{
										OFFSET 29.960503 0.000000 0.000000
										CHANNELS 3 Xrotation Yrotation Zrotation
										JOINT LeftHand
										{
											OFFSET 27.849251 0.000000 0.000000
											CHANNELS 3 Xrotation Yrotation Zrotation
											End Site
											{
												OFFSET 0 0 0
											}
										}
									}
								}
							}
						}
						JOINT RightShoulder_virtual
						{
							OFFSET 0.000000 0.000000 0.000000
							CHANNELS 3 Xrotation Yrotation Zrotation
							JOINT RightShoulder
							{
								OFFSET -15.263000 10.923401 -0.547700
								CHANNELS 3 Xrotation Yrotation Zrotation
								JOINT RightArm
								{
									OFFSET -25.438599 -2.830597 -13.032500
									CHANNELS 3 Xrotation Yrotation Zrotation
									JOINT RightForeArm
									{
										OFFSET -29.960503 0.000000 0.000000
										CHANNELS 3 Xrotation Yrotation Zrotation
										JOINT RightHand
										{
											OFFSET -27.849251 0.000000 0.000000
											CHANNELS 3 Xrotation Yrotation Zrotation
											End Site
											{
												OFFSET 0 0 0
											}
										}
									}
								}
							}
						}
					}
				}
			}
		}
	}
}
MOTION
Frames: 12
Frame Time: 0.03333333
-3.219214 87.798180 2.784519 0.000000 0.000000 0.000000 -6.493999 -44.189418 -3.403375 -32.263273 4.664521 15.766880 36.706598 -14.158862 0.368368 -3.392190 0.790956 -11.556801 0.000000 0.000000 0.000000 -6.741800 -42.946027 -3.610076 0.960904 -15.347037 -17.648282 31.088070 -8.612863 0.827088 -24.944942 -5.187456 23.696298 0.000000 0.000000 0.000000 -6.638354 -43.326093 -3.251087 -0.377259 -0.869929 -0.638363 5.595836 4.535191 -1.626578 12.323820 9.129542 -3.501165 0.000000 0.000000 0.000000 11.721003 9.111347 -3.487087 -1.153080 0.136061 0.479191 0.000000 0.000000 0.000000 11.983085 9.166697 -3.816682 1.030992 -1.856495 -7.185510 -16.175602 0.807306 -62.587885 11.193560 -47.517411 6.735822 0.000000 0.000000 0.000000 12.207498 9.288187 -3.551795 2.058249 8.220540 7.996473 0.868759 -23.029682 60.526199 -7.309398 47.187274 9.570663 0.000000 0.000000 0.000000 
-3.209971 87.783524 2.775616 0.000000 0.000000 0.000000 -6.512486 -44.291748 -3.390316 -32.247642 4.670623 15.743805 36.708343 -14.157686 0.373869 -3.451495 0.848487 -11.522226 0.000000 0.000000 0.000000 -6.773706 -43.042524 -3.608641 0.928049 -15.333143 -17.663168 31.116993 -8.600815 0.830643 -25.005797 -5.209187 23.758342 0.000000 0.000000 0.000000 -6.663587 -43.426630 -3.243418 -0.374262 -0.847421 -0.638720 5.605779 4.519166 -1.629164 12.327546 9.107185 -3.501613 0.000000 0.000000 0.000000 11.719467 9.086796 -3.483477 -1.130479 0.140881 0.472667 0.000000 0.000000 0.000000 11.993659 9.136363 -3.821967 1.020872 -1.862652 -7.174480 -16.146190 0.848710 -62.583452 11.197585 -47.614089 6.742826 0.000000 0.000000 0.000000 12.217293 9.264365 -3.552009 2.044495 8.287670 7.970041 0.865120 -23.002716 60.593333 -7.299069 47.158648 9.529450 0.000000 0.000000 0.000000 
-3.187478 87.757713 2.755268 0.000000 0.000000 0.000000 -6.563928 -44.473940 -3.380477 -32.240679 4.678869 15.724757 36.745707 -14.165145 0.392247 -3.561949 0.890582 -11.505176 0.000000 0.000000 0.000000 -6.841440 -43.225422 -3.614944 0.879504 -15.302352 -17.688477 31.124622 -8.555992 0.803062 -24.990337 -5.203654 23.844233 0.000000 0.000000 0.000000 -6.714656 -43.605290 -3.237093 -0.378712 -0.808638 -0.646967 5.635249 4.485037 -1.627459 12.337066 9.048180 -3.499088 0.000000 0.000000 0.000000 11.723980 9.026658 -3.477260 -1.115392 0.159015 0.461207 0.000000 0.000000 0.000000 11.995901 9.070458 -3.825107 1.013664 -1.869302 -7.153180 -16.147983 0.893505 -62.608649 11.232094 -47.667316 6.772811 0.000000 0.000000 0.000000 12.227303 9.205955 -3.548987 2.026250 8.337341 7.998032 0.846068 -22.962510 60.609261 -7.259306 47.073363 9.465805 0.000000 0.000000 0.000000 
-3.159334 87.727776 2.728188 0.000000 0.000000 0.000000 -6.640585 -44.695600 -3.374252 -32.239456 4.697449 15.720596 36.787303 -14.174313 0.404224 -3.661796 0.906174 -11.514837 0.000000 0.000000 0.000000 -6.929485 -43.446441 -3.626846 0.821831 -15.252229 -17.716860 31.124718 -8.478425 0.742652 -24.885866 -5.179679 23.928489 0.000000 0.000000 0.000000 -6.785124 -43.828296 -3.233190 -0.398374 -0.774512 -0.655415 5.683104 4.430366 -1.620649 12.350842 8.951515 -3.494688 0.000000 0.000000 0.000000 11.732515 8.930039 -3.469046 -1.108495 0.191326 0.446404 0.000000 0.000000 0.000000 11.989276 8.969000 -3.825353 1.009697 -1.863802 -7.111604 -16.155243 0.933874 -62.645395 11.290094 -47.673395 6.815240 0.000000 0.000000 0.000000 12.238201 9.111446 -3.543233 2.004174 8.367097 8.061236 0.810551 -22.915181 60.571893 -7.190067 46.932911 9.383017 0.000000 0.000000 0.000000 
-3.137227 87.700127 2.701508 0.000000 0.000000 0.000000 -6.717792 -44.904857 -3.364793 -32.257576 4.730597 15.729210 36.829654 -14.170874 0.402030 -3.691893 0.909315 -11.523491 0.000000 0.000000 0.000000 -7.016782 -43.660628 -3.639712 0.764453 -15.202630 -17.735063 31.122570 -8.385065 0.659875 -24.742340 -5.168690 23.976247 0.000000 0.000000 0.000000 -6.871377 -44.059945 -3.233455 -0.410473 -0.761409 -0.668369 5.740802 4.353536 -1.604718 12.364962 8.816179 -3.489298 0.000000 0.000000 0.000000 11.739836 8.795568 -3.459741 -1.113237 0.238694 0.428839 0.000000 0.000000 0.000000 11.974198 8.832681 -3.822566 1.012032 -1.830909 -7.047802 -16.152458 0.953378 -62.676295 11.370039 -47.664540 6.867197 0.000000 0.000000 0.000000 12.245834 8.979555 -3.535754 1.981074 8.383460 8.132197 0.744942 -22.849104 60.489658 -7.090522 46.741228 9.278623 0.000000 0.000000 0.000000 
-3.123034 87.679016 2.687813 0.000000 0.000000 0.000000 -6.784709 -45.073006 -3.349253 -32.298687 4.778709 15.734857 36.869436 -14.151640 0.390552 -3.657668 0.914902 -11.508319 0.000000 0.000000 0.000000 -7.094506 -43.842469 -3.648042 0.724393 -15.172005 -17.727865 31.119609 -8.296247 0.569376 -24.596232 -5.188728 23.985710 0.000000 0.000000 0.000000 -6.955396 -44.265940 -3.232526 -0.410126 -0.774510 -0.686092 5.803295 4.258405 -1.580835 12.378900 8.646948 -3.484375 0.000000 0.000000 0.000000 11.739206 8.628276 -3.449407 -1.130953 0.302242 0.409929 0.000000 0.000000 0.000000 11.951034 8.663627 -3.817186 1.020873 -1.768678 -6.967703 -16.129121 0.939807 -62.702667 11.477190 -47.682480 6.931182 0.000000 0.000000 0.000000 12.249086 8.815701 -3.528420 1.956208 8.395996 8.187495 0.647879 -22.754463 60.382806 -6.966064 46.533918 9.159852 0.000000 0.000000 0.000000 
-3.113389 87.668243 2.692226 0.000000 0.000000 0.000000 -6.828653 -45.203667 -3.324085 -32.338726 4.825271 15.712437 36.863388 -14.127965 0.380495 -3.620318 0.916584 -11.483970 0.000000 0.000000 0.000000 -7.149846 -43.983112 -3.640068 0.715306 -15.160358 -17.687762 31.079960 -8.221898 0.478173 -24.468939 -5.233019 23.971973 0.000000 0.000000 0.000000 -7.025958 -44.439547 -3.227642 -0.402441 -0.790612 -0.702660 5.867933 4.155502 -1.552850 12.390441 8.453466 -3.480716 0.000000 0.000000 0.000000 11.730371 8.434911 -3.439222 -1.161030 0.382685 0.389235 0.000000 0.000000 0.000000 11.922825 8.469673 -3.810767 1.035197 -1.670590 -6.885365 -16.090085 0.891458 -62.725309 11.603493 -47.746738 7.000182 0.000000 0.000000 0.000000 12.250551 8.627447 -3.523109 1.927734 8.418761 8.220144 0.537554 -22.651976 60.263080 -6.826993 46.342349 9.035497 0.000000 0.000000 0.000000 
-3.105371 87.668991 2.702110 0.000000 0.000000 0.000000 -6.844565 -45.308558 -3.284508 -32.356460 4.856986 15.650719 36.787464 -14.118479 0.378425 -3.591393 0.901761 -11.485139 0.000000 0.000000 0.000000 -7.191727 -44.095326 -3.615167 0.725599 -15.158688 -17.620689 31.007153 -8.172302 0.396122 -24.383239 -5.290817 23.940739 0.000000 0.000000 0.000000 -7.076154 -44.577609 -3.212667 -0.382253 -0.809658 -0.717021 5.932218 4.058591 -1.527569 12.396949 8.246925 -3.479543 0.000000 0.000000 0.000000 11.713441 8.226537 -3.430946 -1.203415 0.479624 0.366563 0.000000 0.000000 0.000000 11.890749 8.262411 -3.802996 1.052360 -1.545256 -6.812436 -16.049450 0.805855 -62.736428 11.736790 -47.841230 7.062930 0.000000 0.000000 0.000000 12.252468 8.425448 -3.521115 1.893178 8.460631 8.235718 0.437575 -22.558821 60.138784 -6.677776 46.173267 8.912216 0.000000 0.000000 0.000000 
-3.103646 87.677055 2.731129 0.000000 0.000000 0.000000 -6.848487 -45.405103 -3.238549 -32.346499 4.884689 15.559273 36.672163 -14.114483 0.392082 -3.546835 0.880627 -11.512665 0.000000 0.000000 0.000000 -7.222473 -44.195938 -3.571359 0.729595 -15.155526 -17.553533 30.945613 -8.164312 0.326323 -24.289507 -5.341904 23.897579 0.000000 0.000000 0.000000 -7.115362 -44.689023 -3.187124 -0.364475 -0.821319 -0.734119 5.999026 3.977688 -1.512146 12.404511 8.041975 -3.479949 0.000000 0.000000 0.000000 11.691363 8.017732 -3.424053 -1.255591 0.589294 0.342340 0.000000 0.000000 0.000000 11.860846 8.055733 -3.793205 1.066882 -1.413380 -6.763068 -16.013688 0.706784 -62.726094 11.858895 -47.928855 7.100342 0.000000 0.000000 0.000000 12.260210 8.223452 -3.519508 1.851697 8.525398 8.253274 0.371945 -22.498351 60.029078 -6.520977 46.001187 8.794549 0.000000 0.000000 0.000000 
-3.101279 87.683075 2.767590 0.000000 0.000000 0.000000 -6.859817 -45.507255 -3.200109 -32.332562 4.890108 15.434047 36.592148 -14.108927 0.443927 -3.481363 0.870578 -11.538753 0.000000 0.000000 0.000000 -7.250519 -44.295833 -3.518102 0.712421 -15.145972 -17.500809 30.933343 -8.219042 0.263561 -24.174913 -5.377879 23.830255 0.000000 0.000000 0.000000 -7.150599 -44.797141 -3.156765 -0.345349 -0.825970 -0.742952 6.071608 3.917984 -1.506527 12.419788 7.849216 -3.479546 0.000000 0.000000 0.000000 11.669984 7.819537 -3.415863 -1.315787 0.706673 0.315700 0.000000 0.000000 0.000000 11.842828 7.861219 -3.779298 1.074907 -1.295345 -6.743004 -15.995094 0.613215 -62.675318 11.947114 -47.954283 7.093192 0.000000 0.000000 0.000000 12.278511 8.033920 -3.512355 1.802914 8.618782 8.289008 0.336692 -22.463664 59.938462 -6.356411 45.766570 8.681119 0.000000 0.000000 0.000000 
-3.093250 87.676956 2.806900 0.000000 0.000000 0.000000 -6.898611 -45.621289 -3.182597 -32.336783 4.833353 15.262618 36.611730 -14.102517 0.561628 -3.394083 0.896810 -11.531729 0.000000 0.000000 0.000000 -7.289517 -44.404340 -3.471196 0.682743 -15.114988 -17.451195 31.004356 -8.372508 0.199974 -24.097934 -5.421813 23.748322 0.000000 0.000000 0.000000 -7.187389 -44.896418 -3.126378 -0.348912 -0.827496 -0.755620 6.149219 3.877820 -1.505317 12.448524 7.674882 -3.473174 0.000000 0.000000 0.000000 11.656567 7.640436 -3.401574 -1.381715 0.828203 0.286691 0.000000 0.000000 0.000000 11.840077 7.683807 -3.756331 1.072508 -1.217236 -6.747751 -15.987880 0.527363 -62.575987 11.993275 -47.912817 7.037972 0.000000 0.000000 0.000000 12.308062 7.865185 -3.491450 1.747525 8.738578 8.348938 0.311792 -22.440896 59.864320 -6.185706 45.447847 8.576436 0.000000 0.000000 0.000000 
-3.080664 87.648605 2.842251 0.000000 0.000000 0.000000 -6.968988 -45.723650 -3.194175 -32.365623 4.698576 15.033899 36.740233 -14.104858 0.759295 -3.320043 0.965466 -11.493672 0.000000 0.000000 0.000000 -7.336080 -44.498894 -3.439620 0.695164 -15.054871 -17.376520 31.099566 -8.645717 0.126119 -24.127071 -5.487143 23.704209 0.000000 0.000000 0.000000 -7.233734 -44.964464 -3.106684 -0.360984 -0.825079 -0.777032 6.231033 3.849555 -1.501809 12.493289 7.518803 -3.454706 0.000000 0.000000 0.000000 11.658806 7.478767 -3.375894 -1.449515 0.950765 0.255667 0.000000 0.000000 0.000000 11.855117 7.522360 -3.721152 1.060267 -1.191417 -6.769959 -15.990475 0.429807 -62.433926 11.993711 -47.806331 6.937296 0.000000 0.000000 0.000000 12.345978 7.715770 -3.451798 1.689376 8.884859 8.428119 0.283123 -22.423721 59.777740 -6.022849 45.051149 8.489183 0.000000 0.000000 0.000000 
